# Blender v2.91.2 OBJ File: 'Pyramide.blend'
# www.blender.org
mtllib Pyramide.mtl
o Cube
v 0.000048 2.791577 -0.006395
v 2.639921 -2.639921 -2.639921
v 2.639921 -2.639921 2.639921
v -2.639921 -2.639921 -2.639921
v -2.639921 -2.639921 2.639921
v 1.511288 -0.317776 -1.514002
v 1.511288 -0.317775 1.508533
v 2.639921 -2.639921 1.499972
v 1.511288 -0.317775 0.855950
v 2.639921 -2.639921 -1.360978
v 1.511288 -0.317776 -0.781849
v 0.000048 2.738780 -0.006348
v 2.605001 -2.621222 -2.605015
v 2.605010 -2.621245 2.604994
v -2.605001 -2.621222 -2.605017
v -2.605010 -2.621245 2.604994
v 1.480515 -0.347658 -1.483219
v 1.480524 -0.347707 1.477789
v 2.609782 -2.596572 1.499972
v 1.463802 -0.340855 0.855950
v 2.610139 -2.596325 -1.360978
v 1.463802 -0.340855 -0.781849
vt 0.375000 1.000000
vt 0.375000 0.750000
vt 0.481883 0.856883
vt 0.625000 1.000000
vt 0.375000 0.250000
vt 0.375000 0.000000
vt 0.625000 0.250000
vt 0.625000 0.500000
vt 0.481883 0.500000
vt 0.375000 0.500000
vt 0.481883 0.534667
vt 0.375000 0.560558
vt 0.375000 0.696024
vt 0.125000 0.750000
vt 0.125000 0.500000
vt 0.481883 0.643117
vt 0.481883 0.612217
vt 0.481883 0.612217
vt 0.481883 0.534667
vt 0.375000 0.696024
vt 0.375000 0.560558
vt 0.375000 1.000000
vt 0.625000 1.000000
vt 0.481883 0.856883
vt 0.375000 0.750000
vt 0.375000 0.250000
vt 0.625000 0.250000
vt 0.375000 0.000000
vt 0.625000 0.500000
vt 0.375000 0.500000
vt 0.481883 0.500000
vt 0.125000 0.500000
vt 0.125000 0.750000
vt 0.481883 0.643117
vn -0.0000 0.4380 0.8990
vn -0.8994 0.4371 0.0000
vn 0.0000 0.4363 -0.8998
vn 0.8994 0.4371 0.0000
vn 0.0000 -1.0000 0.0000
vn 0.4371 -0.8994 0.0000
vn -0.0801 -0.3066 -0.9484
vn 0.8234 0.5675 0.0001
vn -0.0741 -0.2791 0.9574
vn -0.0034 -0.4393 -0.8983
vn 0.8994 -0.4371 -0.0000
vn -0.0034 -0.4376 0.8992
vn -0.8936 -0.4488 0.0020
vn -0.0037 1.0000 0.0000
vn -0.9040 -0.4275 -0.0000
vn -0.8936 -0.4488 -0.0020
usemtl Material
s off
f 5/1/1 3/2/1 7/3/1 1/4/1
f 4/5/2 5/6/2 1/7/2
f 1/8/3 6/9/3 2/10/3 4/5/3
f 2/10/4 6/9/4 11/11/4 10/12/4
f 8/13/5 3/2/5 5/14/5 4/15/5 2/10/5 10/12/5
f 1/8/4 7/16/4 9/17/4 11/11/4 6/9/4
f 9/17/4 7/16/4 3/2/4 8/13/4
f 11/11/6 9/17/6 20/18/6 22/19/6
f 9/17/7 8/13/7 19/20/7 20/18/7
f 8/13/8 10/12/8 21/21/8 19/20/8
f 10/12/9 11/11/9 22/19/9 21/21/9
usemtl Material.001
f 16/22/10 12/23/10 18/24/10 14/25/10
f 15/26/11 12/27/11 16/28/11
f 12/29/12 15/26/12 13/30/12 17/31/12
f 13/30/13 21/21/13 22/19/13 17/31/13
f 19/20/14 21/21/14 13/30/14 15/32/14 16/33/14 14/25/14
f 12/29/15 17/31/15 22/19/15 20/18/15 18/34/15
f 20/18/16 19/20/16 14/25/16 18/34/16
