# Blender v2.91.2 OBJ File: 'FOR THE GOOD.blend'
# www.blender.org
mtllib THE.mtl
o Text
v 1.361746 -0.000000 0.260000
v 0.981589 -0.000000 0.260000
v 0.981589 0.499830 0.260000
v 1.352199 0.499830 0.260000
v 1.352199 0.415274 0.260000
v 1.082509 0.415274 0.260000
v 1.082509 0.304466 0.260000
v 1.333447 0.304466 0.260000
v 1.333447 0.220252 0.260000
v 1.082509 0.220252 0.260000
v 1.082509 0.084214 0.260000
v 1.361746 0.084214 0.260000
v 0.578588 -0.000000 0.260000
v 0.477668 -0.000000 0.260000
v 0.477668 0.499830 0.260000
v 0.578588 0.499830 0.260000
v 0.578588 0.303103 0.260000
v 0.776338 0.303103 0.260000
v 0.776338 0.499830 0.260000
v 0.877259 0.499830 0.260000
v 0.877259 -0.000000 0.260000
v 0.776338 -0.000000 0.260000
v 0.776338 0.218548 0.260000
v 0.578588 0.218548 0.260000
v 0.264235 -0.000000 0.260000
v 0.163314 -0.000000 0.260000
v 0.163314 0.415274 0.260000
v 0.015002 0.415274 0.260000
v 0.015002 0.499830 0.260000
v 0.412206 0.499830 0.260000
v 0.412206 0.415274 0.260000
v 0.264235 0.415274 0.260000
v 1.361746 0.000000 -0.260000
v 0.981589 0.000000 -0.260000
v 0.981589 0.499830 -0.260000
v 1.352199 0.499830 -0.260000
v 1.352199 0.415274 -0.260000
v 1.082509 0.415274 -0.260000
v 1.082509 0.304466 -0.260000
v 1.333447 0.304466 -0.260000
v 1.333447 0.220252 -0.260000
v 1.082509 0.220252 -0.260000
v 1.082509 0.084214 -0.260000
v 1.361746 0.084214 -0.260000
v 0.578588 0.000000 -0.260000
v 0.477668 0.000000 -0.260000
v 0.477668 0.499830 -0.260000
v 0.578588 0.499830 -0.260000
v 0.578588 0.303103 -0.260000
v 0.776338 0.303103 -0.260000
v 0.776338 0.499830 -0.260000
v 0.877259 0.499830 -0.260000
v 0.877259 0.000000 -0.260000
v 0.776338 0.000000 -0.260000
v 0.776338 0.218548 -0.260000
v 0.578588 0.218548 -0.260000
v 0.264235 0.000000 -0.260000
v 0.163314 0.000000 -0.260000
v 0.163314 0.415274 -0.260000
v 0.015002 0.415274 -0.260000
v 0.015002 0.499830 -0.260000
v 0.412206 0.499830 -0.260000
v 0.412206 0.415274 -0.260000
v 0.264235 0.415274 -0.260000
v 0.264235 0.000000 -0.260000
v 0.264235 -0.000000 0.260000
v 0.163314 0.000000 -0.260000
v 0.163314 -0.000000 0.260000
v 0.163314 0.415274 -0.260000
v 0.163314 0.415274 0.260000
v 0.015002 0.415274 -0.260000
v 0.015002 0.415274 0.260000
v 0.015002 0.499830 -0.260000
v 0.015002 0.499830 0.260000
v 0.412206 0.499830 -0.260000
v 0.412206 0.499830 0.260000
v 0.412206 0.415274 -0.260000
v 0.412206 0.415274 0.260000
v 0.264235 0.415274 -0.260000
v 0.264235 0.415274 0.260000
v 0.578588 0.000000 -0.260000
v 0.578588 -0.000000 0.260000
v 0.477668 0.000000 -0.260000
v 0.477668 -0.000000 0.260000
v 0.477668 0.499830 -0.260000
v 0.477668 0.499830 0.260000
v 0.578588 0.499830 -0.260000
v 0.578588 0.499830 0.260000
v 0.578588 0.303103 -0.260000
v 0.578588 0.303103 0.260000
v 0.776338 0.303103 -0.260000
v 0.776338 0.303103 0.260000
v 0.776338 0.499830 -0.260000
v 0.776338 0.499830 0.260000
v 0.877259 0.499830 -0.260000
v 0.877259 0.499830 0.260000
v 0.877259 0.000000 -0.260000
v 0.877259 -0.000000 0.260000
v 0.776338 0.000000 -0.260000
v 0.776338 -0.000000 0.260000
v 0.776338 0.218548 -0.260000
v 0.776338 0.218548 0.260000
v 0.578588 0.218548 -0.260000
v 0.578588 0.218548 0.260000
v 1.361746 0.000000 -0.260000
v 1.361746 -0.000000 0.260000
v 0.981589 0.000000 -0.260000
v 0.981589 -0.000000 0.260000
v 0.981589 0.499830 -0.260000
v 0.981589 0.499830 0.260000
v 1.352199 0.499830 -0.260000
v 1.352199 0.499830 0.260000
v 1.352199 0.415274 -0.260000
v 1.352199 0.415274 0.260000
v 1.082509 0.415274 -0.260000
v 1.082509 0.415274 0.260000
v 1.082509 0.304466 -0.260000
v 1.082509 0.304466 0.260000
v 1.333447 0.304466 -0.260000
v 1.333447 0.304466 0.260000
v 1.333447 0.220252 -0.260000
v 1.333447 0.220252 0.260000
v 1.082509 0.220252 -0.260000
v 1.082509 0.220252 0.260000
v 1.082509 0.084214 -0.260000
v 1.082509 0.084214 0.260000
v 1.361746 0.084214 -0.260000
v 1.361746 0.084214 0.260000
vt 0.090909 0.000000
vt 0.454545 0.000000
vt 0.181818 0.000000
vt 0.272727 0.000000
vt 0.363636 0.000000
vt 0.545455 0.000000
vt 0.818182 0.000000
vt 0.636364 0.000000
vt 0.727273 0.000000
vt 0.909091 0.000000
vt 1.000000 0.000000
vt 0.000000 0.000000
vt 0.090909 0.000000
vt 0.272727 0.000000
vt 0.181818 0.000000
vt 0.363636 0.000000
vt 0.454545 0.000000
vt 0.636364 0.000000
vt 0.545455 0.000000
vt 0.727273 0.000000
vt 1.000000 0.000000
vt 0.909091 0.000000
vt 0.000000 0.000000
vt 0.818182 0.000000
vt 0.428571 0.000000
vt 0.714286 0.000000
vt 0.571429 0.000000
vt 0.857143 0.000000
vt 0.285714 0.000000
vt 0.142857 0.000000
vt 1.000000 0.000000
vt 0.000000 0.000000
vt 0.454545 0.000000
vt 0.090909 0.000000
vt 0.181818 0.000000
vt 0.272727 0.000000
vt 0.363636 0.000000
vt 0.545455 0.000000
vt 0.818182 0.000000
vt 0.636364 0.000000
vt 0.727273 0.000000
vt 0.909091 0.000000
vt 1.000000 0.000000
vt 0.000000 0.000000
vt 0.272727 0.000000
vt 0.090909 0.000000
vt 0.181818 0.000000
vt 0.363636 0.000000
vt 0.636364 0.000000
vt 0.454545 0.000000
vt 0.545455 0.000000
vt 0.727273 0.000000
vt 1.000000 0.000000
vt 0.909091 0.000000
vt 0.000000 0.000000
vt 0.818182 0.000000
vt 0.714286 0.000000
vt 0.428571 0.000000
vt 0.571429 0.000000
vt 0.857143 0.000000
vt 0.285714 0.000000
vt 1.000000 0.000000
vt 0.142857 0.000000
vt 0.000000 0.000000
vt 0.000000 1.000000
vt 0.125000 1.000000
vt 0.125000 0.000000
vt 0.000000 0.000000
vt 0.250000 1.000000
vt 0.250000 0.000000
vt 0.375000 1.000000
vt 0.375000 0.000000
vt 0.500000 1.000000
vt 0.500000 0.000000
vt 0.625000 1.000000
vt 0.625000 0.000000
vt 0.750000 1.000000
vt 0.750000 0.000000
vt 0.875000 1.000000
vt 0.875000 0.000000
vt 1.000000 1.000000
vt 1.000000 0.000000
vt 0.000000 1.000000
vt 0.083333 1.000000
vt 0.083333 0.000000
vt 0.000000 0.000000
vt 0.166667 1.000000
vt 0.166667 0.000000
vt 0.250000 1.000000
vt 0.250000 0.000000
vt 0.333333 1.000000
vt 0.333333 0.000000
vt 0.416667 1.000000
vt 0.416667 0.000000
vt 0.500000 1.000000
vt 0.500000 0.000000
vt 0.583333 1.000000
vt 0.583333 0.000000
vt 0.666667 1.000000
vt 0.666667 0.000000
vt 0.750000 1.000000
vt 0.750000 0.000000
vt 0.833333 1.000000
vt 0.833333 0.000000
vt 0.916667 1.000000
vt 0.916667 0.000000
vt 1.000000 1.000000
vt 1.000000 0.000000
vt 0.000000 1.000000
vt 0.083333 1.000000
vt 0.083333 0.000000
vt 0.000000 0.000000
vt 0.166667 1.000000
vt 0.166667 0.000000
vt 0.250000 1.000000
vt 0.250000 0.000000
vt 0.333333 1.000000
vt 0.333333 0.000000
vt 0.416667 1.000000
vt 0.416667 0.000000
vt 0.500000 1.000000
vt 0.500000 0.000000
vt 0.583333 1.000000
vt 0.583333 0.000000
vt 0.666667 1.000000
vt 0.666667 0.000000
vt 0.750000 1.000000
vt 0.750000 0.000000
vt 0.833333 1.000000
vt 0.833333 0.000000
vt 0.916667 1.000000
vt 0.916667 0.000000
vt 1.000000 1.000000
vt 1.000000 0.000000
vn 0.0000 -0.0000 1.0000
vn 0.0000 0.0000 -1.0000
vn 0.7071 -0.7071 0.0000
vn -0.7071 -0.7071 0.0000
vn -0.7071 0.7071 0.0000
vn 0.7071 0.7071 0.0000
usemtl Material.001
s off
f 2/1/1 6/2/1 3/3/1
f 6/2/1 4/4/1 3/3/1
f 6/2/1 5/5/1 4/4/1
f 2/1/1 7/6/1 6/2/1
f 2/1/1 10/7/1 7/6/1
f 10/7/1 8/8/1 7/6/1
f 10/7/1 9/9/1 8/8/1
f 2/1/1 11/10/1 10/7/1
f 2/1/1 12/11/1 11/10/1
f 2/1/1 1/12/1 12/11/1
f 14/13/1 16/14/1 15/15/1
f 14/13/1 17/16/1 16/14/1
f 18/17/1 20/18/1 19/19/1
f 18/17/1 21/20/1 20/18/1
f 14/13/1 24/21/1 17/16/1
f 24/21/1 18/17/1 17/16/1
f 24/21/1 23/22/1 18/17/1
f 23/22/1 21/20/1 18/17/1
f 14/13/1 13/23/1 24/21/1
f 22/24/1 21/20/1 23/22/1
f 28/25/1 30/26/1 29/27/1
f 28/25/1 31/28/1 30/26/1
f 27/29/2 31/28/2 28/25/2
f 26/30/1 32/31/1 27/29/1
f 32/31/1 31/28/1 27/29/1
f 26/30/1 25/32/1 32/31/1
f 38/33/2 34/34/2 35/35/2
f 36/36/2 38/33/2 35/35/2
f 37/37/2 38/33/2 36/36/2
f 39/38/2 34/34/2 38/33/2
f 42/39/2 34/34/2 39/38/2
f 40/40/2 42/39/2 39/38/2
f 41/41/2 42/39/2 40/40/2
f 43/42/2 34/34/2 42/39/2
f 44/43/2 34/34/2 43/42/2
f 33/44/2 34/34/2 44/43/2
f 48/45/2 46/46/2 47/47/2
f 49/48/2 46/46/2 48/45/2
f 52/49/2 50/50/2 51/51/2
f 53/52/2 50/50/2 52/49/2
f 56/53/2 46/46/2 49/48/2
f 50/50/2 56/53/2 49/48/2
f 55/54/2 56/53/2 50/50/2
f 53/52/2 55/54/2 50/50/2
f 45/55/2 46/46/2 56/53/2
f 53/52/2 54/56/2 55/54/2
f 62/57/2 60/58/2 61/59/2
f 63/60/2 60/58/2 62/57/2
f 63/60/1 59/61/1 60/58/1
f 64/62/2 58/63/2 59/61/2
f 63/60/1 64/62/1 59/61/1
f 57/64/2 58/63/2 64/62/2
s 1
f 66/65/3 68/66/4 67/67/4 65/68/3
f 68/66/4 70/69/4 69/70/4 67/67/4
f 70/69/4 72/71/4 71/72/4 69/70/4
f 72/71/4 74/73/5 73/74/5 71/72/4
f 74/73/5 76/75/6 75/76/6 73/74/5
f 76/75/6 78/77/3 77/78/3 75/76/6
f 78/77/3 80/79/3 79/80/3 77/78/3
f 80/79/3 66/81/3 65/82/3 79/80/3
f 82/83/3 84/84/4 83/85/4 81/86/3
f 84/84/4 86/87/5 85/88/5 83/85/4
f 86/87/5 88/89/6 87/90/6 85/88/5
f 88/89/6 90/91/6 89/92/6 87/90/6
f 90/91/6 92/93/5 91/94/5 89/92/6
f 92/93/5 94/95/5 93/96/5 91/94/5
f 94/95/5 96/97/6 95/98/6 93/96/5
f 96/97/6 98/99/3 97/100/3 95/98/6
f 98/99/3 100/101/4 99/102/4 97/100/3
f 100/101/4 102/103/4 101/104/4 99/102/4
f 102/103/4 104/105/3 103/106/3 101/104/4
f 104/105/3 82/107/3 81/108/3 103/106/3
f 106/109/3 108/110/4 107/111/4 105/112/3
f 108/110/4 110/113/5 109/114/5 107/111/4
f 110/113/5 112/115/6 111/116/6 109/114/5
f 112/115/6 114/117/3 113/118/3 111/116/6
f 114/117/3 116/119/3 115/120/3 113/118/3
f 116/119/3 118/121/6 117/122/6 115/120/3
f 118/121/6 120/123/6 119/124/6 117/122/6
f 120/123/6 122/125/3 121/126/3 119/124/6
f 122/125/3 124/127/3 123/128/3 121/126/3
f 124/127/3 126/129/6 125/130/6 123/128/3
f 126/129/6 128/131/6 127/132/6 125/130/6
f 128/131/6 106/133/3 105/134/3 127/132/6
